<?xml version="1.0" encoding="UTF-8"?>
<svg xmlns="http://www.w3.org/2000/svg" width="370" height="448" version="1.0" shape-rendering="geometricPrecision"><defs><style type="text/css">@font-face {
  font-family: sans-serif;
}</style><filter id="shadowBlur" x="0" y="0" width="200%" height="200%"><feOffset in="SourceGraphic" dx="3.0003002" dy="3.0003002" result="offOut"/><feGaussianBlur in="offOut" stdDeviation="3"/></filter></defs><g stroke-width="1" stroke-linecap="square" stroke-linejoin="round"><rect x="0" y="0" width="370" height="448" style="fill: #ffffff"/><path stroke="#969696" fill="#969696" filter="url(#shadowBlur)" d="M343.0 37.0 L343.0 411.0 L27.0 411.0 L27.0 37.0 z"/><path stroke="#969696" fill="#969696" filter="url(#shadowBlur)" d="M343.0 37.0 L343.0 105.0 L27.0 105.0 L27.0 37.0 z"/><path stroke="#969696" fill="#969696" filter="url(#shadowBlur)" d="M27.0 343.0 L27.0 411.0 L343.0 411.0 L343.0 343.0 z"/><path stroke="#969696" fill="#969696" filter="url(#shadowBlur)" d="M195.0 287.0 L195.0 245.0 L315.0 245.0 L315.0 287.0 z"/><path stroke="#969696" fill="#969696" filter="url(#shadowBlur)" d="M165.0 245.0 L165.0 287.0 L55.0 287.0 L55.0 245.0 z"/><path stroke="#969696" fill="#969696" filter="url(#shadowBlur)" d="M315.0 133.0 L315.0 161.0 L205.0 161.0 L205.0 133.0 z"/><path stroke="#000000" stroke-width="1.0" stroke-linecap="round" stroke-linejoin="round" fill="white" d="M343.0 37.0 L343.0 411.0 L27.0 411.0 L27.0 37.0 z"/><path stroke="#000000" stroke-width="1.0" stroke-linecap="round" stroke-linejoin="round" fill="white" d="M343.0 37.0 L343.0 105.0 L27.0 105.0 L27.0 37.0 z"/><path stroke="#000000" stroke-width="1.0" stroke-linecap="round" stroke-linejoin="round" fill="white" d="M27.0 343.0 L27.0 411.0 L343.0 411.0 L343.0 343.0 z"/><path stroke="#000000" stroke-width="1.0" stroke-linecap="round" stroke-linejoin="round" fill="white" d="M195.0 287.0 L195.0 245.0 L315.0 245.0 L315.0 287.0 z"/><path stroke="#000000" stroke-width="1.0" stroke-linecap="round" stroke-linejoin="round" fill="white" d="M165.0 245.0 L165.0 287.0 L55.0 287.0 L55.0 245.0 z"/><path stroke="#000000" stroke-width="1.0" stroke-linecap="round" stroke-linejoin="round" fill="white" d="M315.0 133.0 L315.0 161.0 L205.0 161.0 L205.0 133.0 z"/><path stroke="none" stroke-width="1.0" stroke-linecap="round" stroke-linejoin="round" fill="#000000" d="M95.0 168.0 L90.0 182.0 L100.0 182.0 z"/><path stroke="none" stroke-width="1.0" stroke-linecap="round" stroke-linejoin="round" fill="#000000" d="M270.0 224.0 L275.0 238.0 L280.0 224.0 z"/><path stroke="#000000" stroke-width="1.0" stroke-linecap="round" stroke-linejoin="round" fill="none" d="M105.0 203.0 L265.0 203.0 "/><path stroke="#000000" stroke-width="1.0" stroke-linecap="round" stroke-linejoin="round" fill="none" d="M275.0 161.0 L275.0 231.0 "/><path stroke="#000000" stroke-width="1.0" stroke-linecap="round" stroke-linejoin="round" fill="none" d="M85.0 203.0 L25.0 203.0 "/><path stroke="#000000" stroke-width="1.0" stroke-linecap="round" stroke-linejoin="round" fill="none" d="M285.0 203.0 L345.0 203.0 "/><path stroke="#000000" stroke-width="1.0" stroke-linecap="round" stroke-linejoin="round" fill="none" d="M95.0 175.0 L95.0 245.0 "/><text x="73" y="139" font-family="sans-serif" font-size="16" stroke="none" fill="#000000"><![CDATA[uGI Library]]></text><text x="122" y="321" font-family="sans-serif" font-size="16" stroke="none" fill="#000000"><![CDATA[Driver Program]]></text><text x="112" y="377" font-family="sans-serif" font-size="16" stroke="none" fill="#000000"><![CDATA[Operating System]]></text><text x="70" y="265" font-family="sans-serif" font-size="16" stroke="none" fill="#000000"><![CDATA[Event]]></text><text x="70" y="279" font-family="sans-serif" font-size="16" stroke="none" fill="#000000"><![CDATA[Handling]]></text><text x="106" y="69" font-family="sans-serif" font-size="16" stroke="none" fill="#000000"><![CDATA[GUI Application]]></text><text x="224" y="153" font-family="sans-serif" font-size="16" stroke="none" fill="#000000"><![CDATA[Widgets]]></text><text x="210" y="265" font-family="sans-serif" font-size="16" stroke="none" fill="#000000"><![CDATA[Drawing]]></text><text x="210" y="279" font-family="sans-serif" font-size="16" stroke="none" fill="#000000"><![CDATA[Functions]]></text></g></svg>